<?xml version="1.0" encoding="UTF-8"?><svg id="a" xmlns="http://www.w3.org/2000/svg" width="735.16" height="271.73" viewBox="0 0 735.16 271.73"><path d="m254.23,118.81c19.19,36.87,33,75.12,38.8,116.1.75,5.33-.95,7.94-5.85,10.05-32.09,13.8-65.71,21.42-100.32,24.76-40.16,3.88-80.13,2.3-119.72-5.83-21.7-4.46-42.89-10.6-63.1-19.89-3.27-1.5-4.34-3.35-3.97-6.86,2.75-25.8,9.62-50.57,18.85-74.71,16.67-43.6,39.48-83.56,71.03-118.21,14.4-15.82,30.39-29.76,48.41-41.46,6.13-3.98,10.74-3.44,16.57.35,26.6,17.29,48.83,39.21,67.19,64.81,11.6,16.18,21.37,33.66,32.1,50.89m-133.25-20.55c-23.85,31.63-42.09,65.96-51.33,105.27,51.6,14.23,102.32,14.32,153.66-.13-13.54-52-39.38-95.9-77.32-134.17-8.54,9.87-16.57,19.16-25.02,29.03Z" fill="#fff" stroke-width="0"/><path d="m309.28,68.09c15.99-24.33,36.33-42.94,63.89-52.5,16.03-5.57,32.76-5.3,49.42-4.19,5.62.37,11.15,1.8,16.77,2.37,4.33.44,6.19,2.48,6.71,6.78,2.23,18.15,4.53,36.3,7.12,54.41,4.41,30.78,9.13,61.51,13.59,92.28,1.85,12.8,3.36,25.65,5.09,38.99h-57.28v-49.26c-4.26,7.49-7.5,13.88-11.37,19.87-7.81,12.1-17.7,22.11-31.01,28.16-23.98,10.9-57.44,6.87-72.1-26.96-16.48-38.03-12.65-74.62,9.18-109.95m32.53,44.06c-2.87,12.25-2.92,24.44,1.43,36.36,3.09,8.45,10.31,11.26,18.02,6.63,4.32-2.6,8.49-6.07,11.55-10.05,18.17-23.68,26.72-50.98,29.15-80.42.4-4.89-2.04-7.96-6.83-8.92-8.63-1.72-16.18,1.08-22.72,6.41-15.79,12.84-25.48,29.57-30.6,50Z" fill="#fff" stroke-width="0"/><path d="m529.61,121.4c.7,3.95,1.29,7.48,1.87,11.01l1.11.15c2.14-5.64,4.31-11.26,6.41-16.91,12.33-33.22,24.66-66.45,36.9-99.7,1.03-2.79,1.9-4.58,5.53-3.83,16.76,3.46,33.58,6.68,50.37,10,.46.09.87.4,2.01.95-2.62,5.7-5.16,11.38-7.82,17-25.13,53.1-50.33,106.16-75.34,159.32-1.89,4.01-3.95,5.64-8.56,5.53-14.82-.35-29.66-.13-44.49-.13-1.63,0-3.26,0-5.43,0-9.93-62.69-19.8-124.98-29.73-187.63,2.1-.21,3.39-.44,4.67-.45,15.83-.03,31.66,0,47.49-.07,2.63-.01,4.22.24,4.55,3.57,3.35,33.6,6.87,67.18,10.46,101.2Z" fill="#fff" stroke-width="0"/><path d="m643.13,160.9c8.71.05,17.18,1.24,25.2-.18,11.93-2.11,16.82-13.64,9.9-23.65-5.21-7.53-12.35-13.85-19.17-20.12-18.48-16.98-27.53-37.37-23.02-62.57,3.56-19.86,16.16-32.3,34.47-39.38,16.84-6.51,34.45-6.83,52.16-5.76,2.82.17,5.64.61,8.46.67,3.27.07,4.38,1.5,3.94,4.7-1.78,12.83-3.46,25.67-5.13,38.23-7.88-.65-15.56-1.53-23.27-1.82-5.36-.2-10.35,1.2-14.75,4.83-5.25,4.33-7.02,10.04-3.11,15.7,3.28,4.73,7.48,8.87,11.55,13,7.23,7.34,15.18,14.02,21.92,21.77,20.15,23.16,13.93,56.28-1.11,75.17-12.2,15.32-28.87,22.6-47.7,25.39-20.44,3.03-40.86,1.11-61.19-1.48-11.7-1.49-23.32-3.58-34.96-5.45-1.74-.28-3.44-.82-5.71-1.37,7.77-16.79,15.28-33.03,22.63-48.93,16.45,3.81,32.44,7.52,48.87,11.25Z" fill="#fff" stroke-width="0"/><path d="m317.27,251.73c-5.88,0-8.78-3.11-8.78-8.23,0-7.86,5.59-14.37,13.32-14.37,5.84,0,8.74,3.32,8.74,8.49,0,7.9-5.88,14.11-13.27,14.11Zm3.82-18.65c-4.24,0-7.94,3.82-7.94,9.87,0,2.9,1.43,4.79,4.66,4.79,5.17,0,8.02-5,8.02-9.7,0-2.94-1.51-4.96-4.75-4.96Z" fill="#fff" stroke-width="0"/><path d="m342.13,251.73c-5.88,0-8.78-3.11-8.78-8.23,0-7.86,5.59-14.37,13.32-14.37,5.84,0,8.74,3.32,8.74,8.49,0,7.9-5.88,14.11-13.27,14.11Zm3.82-18.65c-4.24,0-7.94,3.82-7.94,9.87,0,2.9,1.43,4.79,4.66,4.79,5.17,0,8.02-5,8.02-9.7,0-2.94-1.51-4.96-4.75-4.96Z" fill="#fff" stroke-width="0"/><path d="m372.04,233.33c-1.13-.34-2.27-.59-3.53-.59-2.44,0-3.99,1.09-3.99,3.07,0,3.11,6.93,2.9,6.93,8.11,0,4.45-3.95,7.86-9.49,7.86-1.97,0-3.36-.21-4.54-.55l.88-4.08c1.05.46,2.52.84,4.03.84,2.69,0,4.16-1.51,4.16-3.28,0-3.4-6.81-2.77-6.81-8.02,0-4.03,3.23-7.56,8.91-7.56,1.89,0,3.07.17,4.24.38l-.8,3.82Z" fill="#fff" stroke-width="0"/><path d="m391.82,233.37h-5.92l-3.45,17.98h-4.45l3.44-17.98h-5.92l.71-3.86h16.3l-.71,3.86Z" fill="#fff" stroke-width="0"/><path d="m392.74,242.57v-3.61h10.08v3.61h-10.08Z" fill="#fff" stroke-width="0"/><path d="m416.47,251.35h-5.12l-3.99-21.84h4.66l2.02,11.26c.38,1.89.59,3.82.76,5.71h.04c.84-1.97,1.85-3.95,2.77-5.63l6.34-11.34h4.92l-12.39,21.84Z" fill="#fff" stroke-width="0"/><path d="m440.12,251.35h-11.68l4.16-21.84h4.41l-3.4,17.9h7.27l-.76,3.95Z" fill="#fff" stroke-width="0"/><path d="m458.56,251.35l-.71-4.24h-8.95l-2.35,4.24h-4.62l12.27-21.84h5.25l3.91,21.84h-4.79Zm-2.27-13.65c-.21-1.13-.34-2.27-.42-3.36h-.04c-.55,1.18-1.09,2.27-1.72,3.4l-3.44,6.09h6.72l-1.09-6.13Z" fill="#fff" stroke-width="0"/><path d="m481.66,251.35l-.71-4.24h-8.95l-2.35,4.24h-4.62l12.27-21.84h5.25l3.91,21.84h-4.79Zm-2.27-13.65c-.21-1.13-.34-2.27-.42-3.36h-.04c-.55,1.18-1.09,2.27-1.72,3.4l-3.44,6.09h6.72l-1.09-6.13Z" fill="#fff" stroke-width="0"/><path d="m517.65,251.35h-4.66l.55-11.26c.13-2.1.25-3.82.38-5.04h-.04c-.5,1.26-1.13,2.69-1.85,4.07l-6.39,12.22h-4.66l-1.51-11.34c-.17-1.55-.38-3.4-.38-4.92h-.04c-.42,1.72-.92,3.36-1.51,5.21l-3.49,11.05h-4.54l7.44-21.84h5.54l1.64,12.18c.21,1.34.38,2.77.38,4.08h.04c.55-1.43,1.09-2.56,1.81-3.99l6.47-12.27h5.75l-.92,21.84Z" fill="#fff" stroke-width="0"/><path d="m537.48,233.33c-1.13-.34-2.27-.59-3.53-.59-2.44,0-3.99,1.09-3.99,3.07,0,3.11,6.93,2.9,6.93,8.11,0,4.45-3.95,7.86-9.49,7.86-1.97,0-3.36-.21-4.54-.55l.88-4.08c1.05.46,2.52.84,4.03.84,2.69,0,4.16-1.51,4.16-3.28,0-3.4-6.81-2.77-6.81-8.02,0-4.03,3.23-7.56,8.91-7.56,1.89,0,3.07.17,4.24.38l-.8,3.82Z" fill="#fff" stroke-width="0"/><path d="m557.38,233.07h-8.11l-1.05,5.33h7.73l-.63,3.44h-7.77l-1.09,5.88h8.11l-.67,3.61h-12.56l4.16-21.84h12.56l-.67,3.57Z" fill="#fff" stroke-width="0"/><path d="m585.61,233.37h-5.92l-3.45,17.98h-4.45l3.44-17.98h-5.92l.71-3.86h16.3l-.71,3.86Z" fill="#fff" stroke-width="0"/><path d="m602.74,233.07h-8.11l-1.05,5.33h7.73l-.63,3.44h-7.77l-1.09,5.88h8.11l-.67,3.61h-12.56l4.16-21.84h12.56l-.67,3.57Z" fill="#fff" stroke-width="0"/><path d="m617.44,251.35h-11.68l4.16-21.84h4.41l-3.4,17.9h7.27l-.76,3.95Z" fill="#fff" stroke-width="0"/><path d="m638.1,233.07h-8.11l-1.05,5.33h7.73l-.63,3.44h-7.77l-1.09,5.88h8.11l-.67,3.61h-12.56l4.16-21.84h12.56l-.67,3.57Z" fill="#fff" stroke-width="0"/><path d="m650.79,251.35h-5.12l-3.99-21.84h4.66l2.02,11.26c.38,1.89.59,3.82.76,5.71h.04c.84-1.97,1.85-3.95,2.77-5.63l6.34-11.34h4.92l-12.39,21.84Z" fill="#fff" stroke-width="0"/><path d="m667.17,251.35h-4.41l4.16-21.84h4.41l-4.16,21.84Z" fill="#fff" stroke-width="0"/><path d="m688.13,233.33c-1.13-.34-2.27-.59-3.53-.59-2.44,0-3.99,1.09-3.99,3.07,0,3.11,6.93,2.9,6.93,8.11,0,4.45-3.95,7.86-9.49,7.86-1.97,0-3.36-.21-4.54-.55l.88-4.08c1.05.46,2.52.84,4.03.84,2.69,0,4.16-1.51,4.16-3.28,0-3.4-6.81-2.77-6.81-8.02,0-4.03,3.23-7.56,8.91-7.56,1.89,0,3.07.17,4.24.38l-.8,3.82Z" fill="#fff" stroke-width="0"/><path d="m696.4,251.35h-4.41l4.16-21.84h4.41l-4.16,21.84Z" fill="#fff" stroke-width="0"/><path d="m719.96,233.07h-8.11l-1.05,5.33h7.73l-.63,3.44h-7.77l-1.09,5.88h8.11l-.67,3.61h-12.56l4.16-21.84h12.56l-.67,3.57Z" fill="#fff" stroke-width="0"/></svg>