<?xml version="1.0" encoding="utf-8"?>
<!-- Generator: Adobe Illustrator 28.0.0, SVG Export Plug-In . SVG Version: 6.00 Build 0)  -->
<svg version="1.1" id="Layer_1" xmlns="http://www.w3.org/2000/svg" xmlns:xlink="http://www.w3.org/1999/xlink" x="0px" y="0px"
	 viewBox="0 0 32 32" style="enable-background:new 0 0 32 32;" xml:space="preserve">
<style type="text/css">
	.st0{fill:#FFFFFF;}
	.st1{fill:#009FE3;}
</style>
<rect x="5.9" y="1.9" class="st0" width="19.8" height="28.3"/>
<path class="st1" d="M29.9,32H2.1C1,32,0,30.7,0,29V3c0-1.7,1-3,2.1-3h27.7C31,0,32,1.4,32,3v26C32,30.7,31,32,29.9,32z M17.5,7.1
	c1.9-0.3,3.4-0.8,4.5-1.4l-1.6-3.1C18.7,4,17,5.3,13.2,5.8c-4,0.7-6.5,3.5-5.8,7c0.4,2.1,1.5,3.3,3.7,4.1c-1,0.9-1.6,2.2-1.4,3.3
	c0.3,1.7,2,2.9,5.3,2.3l2.4-0.4c1.7-0.3,2.6,0.2,2.8,1.3c0.2,1.2-0.4,2.1-3.4,2.6c-3.1,0.5-3.9,0-4.1-1.5l-3.9,0.7
	c0.6,3.2,2.5,4.9,8.4,3.8c5.4-0.9,7.9-3.4,7.3-6.7c-0.5-2.7-3.2-4.2-6.8-3.6l-2.5,0.4c-1.6,0.3-1.9-0.2-2-0.7
	c-0.1-0.4,0.1-0.9,0.4-1.2c0.6,0,1.2,0,1.9-0.1c4.1-0.7,6.2-3.4,5.7-6.6C20.9,8.7,19.7,7.6,17.5,7.1z M11.7,12.1
	c-0.3-1.8,0.5-3.1,2.1-3.4c1.8-0.3,2.8,0.4,3.2,2.4c0.3,2-0.4,3.2-2.1,3.5C13.3,14.8,12,13.9,11.7,12.1z"/>
</svg>
