<?xml version="1.0" encoding="UTF-8"?><svg id="a" xmlns="http://www.w3.org/2000/svg" width="140mm" height="99mm" viewBox="0 0 396.85 280.63"><rect width="396.85" height="280.63" rx="26.36" ry="26.36" fill="#fff" stroke-width="0"/><path d="m76.02,129.84c10.46,2.62,16.45,7.73,18.21,17.73,2.71,15.38-7.7,28.76-27.87,32.32-3.43.6-6.47.83-9.44.59-1.58,1.51-2.44,3.66-2.07,5.75.47,2.69,2.27,4.99,10.03,3.62l12.1-2.13c17.92-3.16,31.1,4.37,33.42,17.51,2.82,15.98-9.36,28.13-35.79,32.79-28.97,5.11-38.54-2.9-41.33-18.73l18.96-3.34c1.32,7.47,5.18,10.17,20.27,7.51,14.63-2.58,17.81-7.29,16.81-12.97-.95-5.37-5.56-7.95-13.92-6.48l-11.65,2.06c-16.57,2.92-24.71-3.03-26.18-11.39-1-5.68,1.61-11.83,6.65-16.42-10.8-3.64-16.22-9.92-18.01-20.07-3.08-17.47,8.83-31.12,28.69-34.62,18.3-2.77,26.74-9.03,35.35-16.09l8.1,15.35c-5.43,3.27-12.76,5.33-22.32,7.02Zm-28.67,24.3c1.61,9.11,7.63,13.59,15.7,12.17,8.51-1.5,12.1-7.37,10.39-17.08-1.66-9.41-6.78-13.12-15.59-11.57-8.07,1.42-12.02,7.81-10.49,16.48Z" stroke-width="0"/><path d="m180.35,151.32l-49.43,8.72c4.18,14.97,12.14,18.19,22.29,16.4,6.72-1.18,12.02-4.28,18.05-10.27l10.92,10.39c-6.65,7.64-15.73,13.86-28.12,16.05-25.39,4.47-41.62-9.91-45.99-34.7-4.21-23.89,5.36-44.67,28.51-48.75,22.4-3.95,38.32,8.64,42.77,33.87.47,2.69.75,6.03,1,8.29Zm-23.11-10.55c-2.11-11.95-7.51-19-17.66-17.21-8.36,1.47-12.59,8.07-11,23.18l28.82-5.08-.16-.9Z" stroke-width="0"/><path d="m258.47,112.29l10.16,57.64-21.21,3.74-9.53-54.05c-1.61-9.11-5.34-11.07-10.71-10.12-6.12,1.08-10.19,5.95-13.28,13.74l9.64,54.65-21.21,3.74-13.95-79.14,18.37-3.24,3.4,9.71c5.03-9.05,11.85-14.87,22.01-16.66,13.89-2.45,23.69,5.06,26.32,19.99Z" stroke-width="0"/><path d="m315.95,164.05c-16.45,2.75-26.47-5.18-29.58-22.81l-6.95-39.42-11.79,2.08-2.64-14.93,11.8-2.08-3.05-17.33,20.76-6.28,3.5,19.86,18.22-3.21.55,15.3-16.13,2.85,6.87,38.98c1.37,7.77,4.43,10.3,9.81,9.36,2.84-.5,5.52-1.9,8.46-4.42l9.71,12.31c-5.11,5.06-12.51,8.52-19.53,9.75Z" stroke-width="0"/><path d="m361.21,84.89c1.24,7.02-3.41,13.84-10.58,15.1-7.02,1.24-13.72-3.59-14.96-10.6-1.21-6.87,3.44-13.69,10.46-14.93,7.17-1.26,13.87,3.56,15.08,10.43Z" stroke-width="0"/><path d="m369.62,138.8c1.24,7.02-3.42,13.84-10.58,15.1-7.02,1.24-13.72-3.59-14.96-10.6-1.21-6.87,3.43-13.69,10.45-14.93,7.17-1.26,13.87,3.56,15.08,10.43Z" stroke-width="0"/></svg>